<?xml version="1.0" encoding="UTF-8"?>
<svg id="Calque_1" xmlns="http://www.w3.org/2000/svg" version="1.1" viewBox="0 0 700.89 300.28">
  <!-- Generator: Adobe Illustrator 29.0.0, SVG Export Plug-In . SVG Version: 2.1.0 Build 186)  -->
  <defs>
    <style>
      .st0 {
        display: none;
        fill: #efeff0;
      }

      .st0, .st1 {
        fill-rule: evenodd;
      }

      .st2 {
        font-family: ArialRoundedMTBold, 'Arial Rounded MT Bold';
        font-size: 109.92px;
      }
    </style>
  </defs>
  <g>
    <polygon class="st0" points="-37.27 345.43 -37.27 -42.29 350.44 -42.29 350.44 345.43 -37.27 345.43 -37.27 345.43"/>
    <path class="st1" d="M56.59,242.24c2.94-5.22,6.82-10.92,12.28-17.15,6.21-7.06,14.46-14.81,25.71-23.31,9.69,4.6,16.9,10.07,22.44,15.91-13.49,2.36-31.95,7.64-51.5,19.33-3.17,1.9-6.14,3.63-8.93,5.21h0ZM256.49,137.45c-4.25,2.1-8.59,4.21-13.03,6.32-7.75.62-13.87.36-13.87.36,2.75.78,6.21,1.27,10.06,1.44-3.66,1.72-7.39,3.44-11.17,5.15-5.99-3.05-11.96-5.99-17.92-8.82,1.82-.56,3.64-1.1,5.46-1.64,22,1.37,41.41-7.09,48.74-10.88.99-.15,1.98-.29,2.98-.43.97-.64,2-1.48,3.02-2.47.34-.09.68-.17,1.01-.24,1.1.12,2.2.23,3.31.33,0,.02,0,.03,0,.05,0,11.78-16.65,15.71-29.81,16.98,3.73-2.01,7.47-4.07,11.21-6.16h0ZM203.96,138.8c-6.7-3.09-13.37-6.04-20.02-8.83,5.06-2.69,10.12-5.46,15.21-8.3-5.28,2.6-10.71,5.23-16.27,7.85-5.84-2.44-11.66-4.76-17.46-6.95,11.03-3.03,22.21-5.6,33.45-7.58-3.42,2.18-7.03,4.41-10.84,6.68,5.84-2.38,13.46-5,22.91-7.23,2.44-.58,5.01-1.14,7.7-1.67,11.02,4.67,22.31,8.09,33.79,10.47-16,4.14-32.16,9.36-48.45,15.56h0ZM156.59,119.33c-15.73-5.62-31.32-10.29-46.77-13.93,6.61-3.6,13.11-7.7,19.47-12.33,8.63,1.02,16.24,2.83,23.36,5.03-4.05,2.24-8,4.61-11.87,7.11,5.19-2.01,10.38-4.02,15.81-5.84,5.43,1.82,10.62,3.83,15.81,5.84-3.87-2.5-7.82-4.87-11.87-7.11,7.12-2.2,14.73-4,23.36-5.03,6.36,4.64,12.86,8.73,19.47,12.33-15.45,3.64-31.04,8.32-46.77,13.93h0ZM73.52,145.57c3.85-.18,7.31-.66,10.06-1.44,0,0-6.12.26-13.87-.36-4.44-2.11-8.78-4.22-13.03-6.32,3.75,2.09,7.48,4.15,11.21,6.16-13.16-1.27-29.81-5.2-29.81-16.98,0-.02,0-.03,0-.05,1.1-.1,2.21-.21,3.31-.33.33.07.67.15,1.01.24,1.02.99,2.06,1.83,3.02,2.47.99.14,1.99.28,2.98.43,7.33,3.78,26.74,12.25,48.74,10.88,1.83.53,3.65,1.08,5.46,1.64-5.95,2.83-11.92,5.77-17.92,8.82-3.78-1.71-7.5-3.43-11.17-5.15h0ZM106.34,143.06c8.34,2.63,16.56,5.49,24.64,8.51-8.08,3.02-16.31,5.88-24.64,8.51-6.73-2.77-13.32-5.62-19.76-8.51,6.44-2.89,13.04-5.74,19.76-8.51h0ZM102.6,161.24c-1.82.56-3.64,1.1-5.46,1.64-22-1.37-41.41,7.09-48.74,10.88-.99.15-1.98.29-2.98.43-.97.64-2,1.48-3.02,2.47-.34.09-.68.17-1.01.24-1.1-.12-2.2-.23-3.31-.33,0-.02,0-.03,0-.05,0-11.78,16.65-15.71,29.81-16.98-3.73,2.01-7.47,4.07-11.22,6.16,4.25-2.1,8.59-4.21,13.03-6.32,7.75-.62,13.87-.36,13.87-.36-2.75-.78-6.21-1.27-10.06-1.44,3.66-1.72,7.39-3.44,11.17-5.15,5.99,3.05,11.96,5.99,17.92,8.82h0ZM160.53,205.04c4.05-2.24,8-4.61,11.87-7.11-5.19,2.01-10.38,4.02-15.81,5.84-5.43-1.82-10.62-3.83-15.81-5.84,3.87,2.5,7.82,4.87,11.87,7.11-7.12,2.2-14.73,4-23.36,5.03-6.36-4.64-12.86-8.73-19.47-12.33,15.45-3.64,31.04-8.32,46.77-13.93,15.73,5.62,31.32,10.29,46.77,13.93-6.61,3.6-13.11,7.7-19.47,12.33-8.63-1.02-16.24-2.83-23.36-5.03h0ZM165.4,180.57c5.8-2.19,11.62-4.51,17.46-6.95,5.57,2.62,11,5.25,16.27,7.85-5.08-2.84-10.15-5.61-15.21-8.3,6.65-2.79,13.33-5.74,20.02-8.83,16.3,6.2,32.45,11.43,48.45,15.56-11.47,2.37-22.76,5.8-33.79,10.47-2.69-.52-5.26-1.08-7.7-1.67-9.45-2.24-17.07-4.85-22.91-7.23,3.81,2.27,7.42,4.5,10.84,6.68-11.25-1.98-22.42-4.56-33.45-7.58h0ZM210.57,161.24c5.95-2.83,11.92-5.77,17.92-8.82,3.78,1.71,7.5,3.42,11.17,5.15-3.85.18-7.31.66-10.06,1.44,0,0,6.12-.26,13.87.36,4.44,2.11,8.78,4.22,13.03,6.32-3.75-2.09-7.48-4.15-11.22-6.16,13.16,1.27,29.81,5.2,29.81,16.98,0,.02,0,.03,0,.05-1.1.1-2.21.21-3.31.33-.33-.07-.67-.15-1.01-.24-1.02-.99-2.06-1.83-3.02-2.47-.99-.14-1.99-.28-2.98-.43-7.33-3.78-26.74-12.25-48.74-10.88-1.83-.53-3.65-1.08-5.46-1.64h0ZM109.22,138.8c6.7-3.09,13.37-6.04,20.02-8.83-5.06-2.69-10.12-5.46-15.21-8.3,5.28,2.6,10.71,5.23,16.27,7.85,5.84-2.44,11.66-4.76,17.46-6.95-11.03-3.03-22.21-5.6-33.45-7.58,3.42,2.18,7.03,4.41,10.84,6.68-5.84-2.38-13.46-5-22.91-7.23-2.44-.58-5.01-1.14-7.7-1.67-11.02,4.67-22.31,8.09-33.79,10.47,16,4.14,32.16,9.36,48.45,15.56h0ZM206.83,143.06c-8.34,2.63-16.56,5.49-24.64,8.51,8.08,3.02,16.31,5.88,24.64,8.51,6.73-2.77,13.32-5.62,19.76-8.51-6.44-2.89-13.04-5.74-19.76-8.51h0ZM147.77,180.57c-5.8-2.19-11.62-4.51-17.46-6.95-5.57,2.62-11,5.25-16.27,7.85,5.08-2.84,10.15-5.61,15.21-8.3-6.65-2.79-13.33-5.74-20.02-8.83-16.3,6.2-32.45,11.43-48.45,15.56,11.47,2.37,22.76,5.8,33.79,10.47,2.69-.52,5.26-1.08,7.7-1.67,9.45-2.24,17.07-4.85,22.91-7.23-3.81,2.27-7.42,4.5-10.84,6.68,11.25-1.98,22.42-4.56,33.45-7.58h0ZM113.13,162.83c6.83,2.72,13.79,5.35,20.84,7.84,6.63-3.48,13.24-6.82,19.83-10.03-5.89-2.47-11.88-4.89-17.96-7.23-7.6,3.34-15.17,6.49-22.71,9.42h0ZM156.59,159.29c5.55-2.67,11.08-5.25,16.6-7.72-5.52-2.47-11.05-5.05-16.6-7.72-5.55,2.67-11.08,5.25-16.6,7.72,5.52,2.47,11.05,5.05,16.6,7.72h0ZM153.8,142.5c-6.59-3.21-13.2-6.55-19.83-10.03-7.05,2.49-14.01,5.12-20.84,7.84,7.54,2.94,15.11,6.08,22.71,9.42,6.08-2.34,12.07-4.75,17.96-7.23h0ZM135.48,171.2c6.95,2.43,13.99,4.72,21.1,6.84,7.11-2.12,14.16-4.41,21.1-6.84-6.85-3.17-13.9-6.32-21.1-9.38-7.21,3.07-14.25,6.21-21.1,9.38h0ZM200.04,162.83c-7.54-2.94-15.11-6.08-22.71-9.42-6.08,2.34-12.07,4.75-17.96,7.23,6.59,3.21,13.2,6.55,19.83,10.03,7.05-2.49,14.01-5.12,20.84-7.84h0ZM135.48,131.94c6.85,3.17,13.9,6.32,21.1,9.38,7.21-3.07,14.25-6.21,21.1-9.38-6.95-2.43-13.99-4.72-21.1-6.84-7.11,2.12-14.16,4.41-21.1,6.84h0ZM159.37,142.5c5.89,2.47,11.88,4.89,17.96,7.23,7.6-3.34,15.17-6.49,22.71-9.42-6.83-2.72-13.79-5.35-20.84-7.84-6.63,3.48-13.24,6.82-19.83,10.03h0ZM219.04,139.39c7.42-2.11,14.92-4.02,22.46-5.69-8.66,3.42-16.99,4.98-22.46,5.69h0ZM299.41,118.28c-1.87-.05-20.09-3.23-20.09-2.6,4.81-10.5,12.44-14.24,12.44-14.23,1.17,6.82,4,12.35,7.65,16.83h0ZM267.7,115.09c-3.17-.54-6.29-1.14-9.35-1.79,5.43-2.52,11.08-4.87,16.96-7.04-2.36,2.84-4.85,5.78-7.61,8.83h0ZM256.58,60.9c-2.94,5.22-6.82,10.92-12.28,17.15-6.21,7.06-14.46,14.81-25.71,23.31-9.69-4.6-16.9-10.07-22.44-15.91,13.49-2.36,31.95-7.64,51.5-19.33,3.17-1.9,6.14-3.63,8.93-5.21h0ZM219.04,163.75c7.42,2.11,14.92,4.02,22.46,5.69-8.66-3.42-16.99-4.98-22.46-5.69h0ZM299.41,184.86c-1.87.05-20.09,3.24-20.09,2.6,4.81,10.5,12.44,14.24,12.44,14.23,1.17-6.82,4-12.35,7.65-16.83h0ZM267.7,188.05c-3.17.54-6.29,1.14-9.35,1.79,5.43,2.52,11.08,4.87,16.96,7.04-2.36-2.84-4.85-5.78-7.61-8.83h0ZM256.58,242.24c-2.94-5.22-6.82-10.92-12.28-17.15-6.21-7.06-14.46-14.81-25.71-23.31-9.69,4.6-16.9,10.07-22.44,15.91,13.49,2.36,31.95,7.64,51.5,19.33,3.17,1.9,6.14,3.63,8.93,5.21h0ZM94.13,139.39c-7.42-2.11-14.92-4.02-22.46-5.69,8.66,3.42,16.99,4.98,22.46,5.69h0ZM13.76,118.28c1.87-.05,20.09-3.23,20.09-2.6-4.81-10.5-12.44-14.24-12.44-14.23-1.17,6.82-4,12.35-7.65,16.83h0ZM45.47,115.09c3.17-.54,6.29-1.14,9.35-1.79-5.43-2.52-11.08-4.87-16.96-7.04,2.36,2.84,4.85,5.78,7.61,8.83h0ZM56.59,60.9c2.94,5.22,6.82,10.92,12.28,17.15,6.21,7.06,14.46,14.81,25.71,23.31,9.69-4.6,16.9-10.07,22.44-15.91-13.49-2.36-31.95-7.64-51.5-19.33-3.17-1.9-6.14-3.63-8.93-5.21h0ZM94.13,163.75c-7.42,2.11-14.92,4.02-22.46,5.69,8.66-3.42,16.99-4.98,22.46-5.69h0ZM13.76,184.86c1.87.05,20.09,3.24,20.09,2.6-4.81,10.5-12.44,14.24-12.44,14.23-1.17-6.82-4-12.35-7.65-16.83h0ZM45.47,188.05c3.17.54,6.29,1.14,9.35,1.79-5.43,2.52-11.08,4.87-16.96,7.04,2.36-2.84,4.85-5.78,7.61-8.83h0Z"/>
  </g>
  <text class="st2" transform="translate(332.42 183.81)"><tspan x="0" y="0">Kiese .</tspan></text>
</svg>